<svg width="34" height="34" viewBox="0 0 34 34" fill="none" xmlns="http://www.w3.org/2000/svg">
<path d="M16.9999 3.40039C19.0537 3.40158 21.0805 3.8679 22.9283 4.76436C24.7762 5.66083 26.3969 6.96415 27.6691 8.57653C28.9412 10.1889 29.8316 12.0685 30.2735 14.0741C30.7154 16.0798 30.6973 18.1595 30.2206 20.1572C29.7439 22.1549 28.8209 24.0187 27.5209 25.6087C26.2209 27.1987 24.5777 28.4736 22.7146 29.3378C20.8515 30.202 18.8168 30.633 16.7633 30.5985C14.7098 30.5639 12.6908 30.0647 10.8578 29.1384L10.6521 29.0279L4.4556 30.5749C4.33635 30.6049 4.21201 30.6086 4.09116 30.5859C3.97032 30.5632 3.85584 30.5145 3.75564 30.4432C3.65544 30.3719 3.57189 30.2798 3.51077 30.1731C3.44965 30.0664 3.4124 29.9477 3.4016 29.8252V29.6858L3.4254 29.5447L4.9724 23.3499L4.8653 23.1459C4.08929 21.6137 3.61051 19.9484 3.4543 18.238L3.4118 17.5886L3.3999 17.0004C3.3999 13.3934 4.83276 9.93423 7.38325 7.38374C9.93375 4.83324 13.393 3.40039 16.9999 3.40039ZM17.8499 18.7004H12.7499L12.5969 18.714C12.4009 18.7495 12.2236 18.8527 12.096 19.0055C11.9683 19.1584 11.8983 19.3512 11.8983 19.5504C11.8983 19.7496 11.9683 19.9424 12.096 20.0953C12.2236 20.2481 12.4009 20.3513 12.5969 20.3868L12.7499 20.4004H17.8499L18.0029 20.3868C18.1989 20.3513 18.3762 20.2481 18.5039 20.0953C18.6315 19.9424 18.7015 19.7496 18.7015 19.5504C18.7015 19.3512 18.6315 19.1584 18.5039 19.0055C18.3762 18.8527 18.1989 18.7495 18.0029 18.714L17.8499 18.7004ZM21.2499 13.6004H12.7499L12.5969 13.614C12.4009 13.6495 12.2236 13.7527 12.096 13.9055C11.9683 14.0584 11.8983 14.2512 11.8983 14.4504C11.8983 14.6496 11.9683 14.8424 12.096 14.9953C12.2236 15.1481 12.4009 15.2513 12.5969 15.2868L12.7499 15.3004H21.2499L21.4029 15.2868C21.5989 15.2513 21.7762 15.1481 21.9038 14.9953C22.0315 14.8424 22.1015 14.6496 22.1015 14.4504C22.1015 14.2512 22.0315 14.0584 21.9038 13.9055C21.7762 13.7527 21.5989 13.6495 21.4029 13.614L21.2499 13.6004Z" fill="#1463FF"/>
</svg>
