<svg width="34" height="34" viewBox="0 0 34 34" fill="none" xmlns="http://www.w3.org/2000/svg">
<path d="M6.86226 13.3404L6.8631 13.3387C6.99384 13.0766 7.16822 12.8706 7.3912 12.7071L7.39123 12.7071L7.39984 12.7006L15.8935 6.33044C16.0746 6.19945 16.2534 6.10841 16.4306 6.04933C16.6092 5.98982 16.7974 5.95898 16.9998 5.95898C17.2023 5.95898 17.3905 5.98982 17.569 6.04933C17.7462 6.10841 17.9251 6.19945 18.1062 6.33044L26.5998 12.7006L26.5998 12.7007L26.6085 12.7071C26.8317 12.8707 27.0068 13.0772 27.1385 13.3398C27.2692 13.6022 27.3332 13.874 27.3332 14.1673V26.9173C27.3332 27.4292 27.1628 27.8428 26.7945 28.212C26.4253 28.5803 26.0117 28.7506 25.4998 28.7506H20.8332L20.8332 20.834C20.8332 19.7294 19.9377 18.834 18.8332 18.834H15.1665C14.0619 18.834 13.1665 19.7294 13.1665 20.834V28.7506L8.49984 28.7506C7.98774 28.7506 7.57478 28.5801 7.20661 28.212C6.83714 27.8425 6.6665 27.4289 6.6665 26.9173V14.1673C6.6665 13.8744 6.73073 13.6028 6.86226 13.3404Z" fill="#1463FF" stroke="#1463FF" stroke-width="2" stroke-linejoin="round"/>
</svg>
