<svg width="34" height="34" viewBox="0 0 34 34" fill="none" xmlns="http://www.w3.org/2000/svg">
<g clip-path="url(#clip0_124_2880)">
<path d="M17 2.83398C20.3815 2.83398 23.6245 4.17728 26.0156 6.56837C28.4067 8.95946 29.75 12.2025 29.75 15.584C29.75 19.9388 27.3757 23.5032 24.8738 26.0602C23.6239 27.324 22.26 28.4697 20.7995 29.4829L20.196 29.8937L19.9127 30.0821L19.3786 30.4222L18.9026 30.7126L18.3132 31.0554C17.9132 31.2837 17.4606 31.4038 17 31.4038C16.5394 31.4038 16.0868 31.2837 15.6867 31.0554L15.0974 30.7126L14.3607 30.2592L14.0887 30.0821L13.5079 29.6954C11.9323 28.6294 10.4648 27.4119 9.12617 26.0602C6.62433 23.5017 4.25 19.9388 4.25 15.584C4.25 12.2025 5.5933 8.95946 7.98439 6.56837C10.3755 4.17728 13.6185 2.83398 17 2.83398ZM17 11.334C16.4419 11.334 15.8892 11.4439 15.3736 11.6575C14.858 11.8711 14.3894 12.1841 13.9948 12.5788C13.6001 12.9734 13.2871 13.4419 13.0735 13.9576C12.8599 14.4732 12.75 15.0259 12.75 15.584C12.75 16.1421 12.8599 16.6948 13.0735 17.2104C13.2871 17.726 13.6001 18.1945 13.9948 18.5892C14.3894 18.9838 14.858 19.2969 15.3736 19.5105C15.8892 19.7241 16.4419 19.834 17 19.834C18.1272 19.834 19.2082 19.3862 20.0052 18.5892C20.8022 17.7922 21.25 16.7112 21.25 15.584C21.25 14.4568 20.8022 13.3758 20.0052 12.5788C19.2082 11.7818 18.1272 11.334 17 11.334Z" fill="#1463FF"/>
</g>
<defs>
<clipPath id="clip0_124_2880">
<rect width="34" height="34" fill="white"/>
</clipPath>
</defs>
</svg>
