<svg width="34" height="34" viewBox="0 0 34 34" fill="none" xmlns="http://www.w3.org/2000/svg">
<path fill-rule="evenodd" clip-rule="evenodd" d="M11.3333 9.91667C11.3333 8.41377 11.9304 6.97243 12.9931 5.90973C14.0558 4.84702 15.4971 4.25 17 4.25C18.5029 4.25 19.9442 4.84702 21.0069 5.90973C22.0696 6.97243 22.6667 8.41377 22.6667 9.91667C22.6667 11.4196 22.0696 12.8609 21.0069 13.9236C19.9442 14.9863 18.5029 15.5833 17 15.5833C15.4971 15.5833 14.0558 14.9863 12.9931 13.9236C11.9304 12.8609 11.3333 11.4196 11.3333 9.91667ZM11.3333 18.4167C9.45472 18.4167 7.65304 19.1629 6.32466 20.4913C4.99628 21.8197 4.25 23.6214 4.25 25.5C4.25 26.6272 4.69777 27.7082 5.4948 28.5052C6.29183 29.3022 7.37283 29.75 8.5 29.75H25.5C26.6272 29.75 27.7082 29.3022 28.5052 28.5052C29.3022 27.7082 29.75 26.6272 29.75 25.5C29.75 23.6214 29.0037 21.8197 27.6753 20.4913C26.347 19.1629 24.5453 18.4167 22.6667 18.4167H11.3333Z" fill="#1463FF"/>
</svg>
