<svg width="24" height="24" viewBox="0 0 24 24" fill="none" xmlns="http://www.w3.org/2000/svg">
<g clip-path="url(#clip0_111_5381)">
<path d="M12 6.75V1.5H6.75C6.15326 1.5 5.58097 1.73705 5.15901 2.15901C4.73705 2.58097 4.5 3.15326 4.5 3.75V20.25C4.5 20.8467 4.73705 21.419 5.15901 21.841C5.58097 22.2629 6.15326 22.5 6.75 22.5H17.25C17.8467 22.5 18.419 22.2629 18.841 21.841C19.2629 21.419 19.5 20.8467 19.5 20.25V16.593L16.9995 19.0935C16.3845 19.7085 15.6135 20.1435 14.7705 20.355L12.5235 20.916C11.9099 21.0708 11.2622 21.0154 10.6838 20.7587C10.1054 20.502 9.62983 20.0588 9.333 19.5H6.75C6.55109 19.5 6.36032 19.421 6.21967 19.2803C6.07902 19.1397 6 18.9489 6 18.75C6 18.5511 6.07902 18.3603 6.21967 18.2197C6.36032 18.079 6.55109 18 6.75 18H9.006C9.01769 17.8245 9.04479 17.6503 9.087 17.4795L9.6495 15.2325C9.86018 14.3897 10.2957 13.6198 10.9095 13.005L14.916 9H14.25C13.6533 9 13.081 8.76295 12.659 8.34099C12.2371 7.91903 12 7.34674 12 6.75ZM13.5 1.875L17.7705 6.1455L16.416 7.5H14.25C14.0511 7.5 13.8603 7.42098 13.7197 7.28033C13.579 7.13968 13.5 6.94891 13.5 6.75V1.875ZM11.97 14.0655L19.215 6.8205C19.4756 6.56009 19.785 6.35356 20.1254 6.2127C20.4658 6.07184 20.8306 5.99941 21.1991 5.99955C21.5675 5.99969 21.9323 6.0724 22.2726 6.21351C22.6129 6.35463 22.9221 6.56139 23.1825 6.822C23.4429 7.08261 23.6494 7.39196 23.7903 7.73238C23.9312 8.07281 24.0036 8.43764 24.0034 8.80606C24.0033 9.17448 23.9306 9.53926 23.7895 9.87958C23.6484 10.2199 23.4416 10.5291 23.181 10.7895L15.936 18.033C15.5138 18.4551 14.985 18.7547 14.406 18.9L12.159 19.461C11.9356 19.5167 11.7015 19.5136 11.4796 19.4521C11.2577 19.3906 11.0555 19.2728 10.8926 19.11C10.7297 18.9473 10.6117 18.7452 10.55 18.5233C10.4883 18.3015 10.485 18.0675 10.5405 17.844L11.103 15.597C11.2483 15.018 11.5479 14.4892 11.97 14.067" fill="#868686"/>
</g>
<defs>
<clipPath id="clip0_111_5381">
<rect width="24" height="24" fill="white"/>
</clipPath>
</defs>
</svg>
