<svg width="24" height="24" viewBox="0 0 24 24" fill="none" xmlns="http://www.w3.org/2000/svg">
<path opacity="0.6" d="M9 22H10C12.828 22 14.243 22 15.121 21.121C16 20.243 16 18.828 16 16V8C16 5.172 16 3.757 15.121 2.879C14.243 2 12.828 2 10 2H9C6.172 2 4.757 2 3.879 2.879C3 3.757 3 5.172 3 8L3 16C3 18.828 3 20.243 3.879 21.121C4.757 22 6.172 22 9 22Z" fill="#868686"/>
<path opacity="0.4" d="M16 16C16 17.538 16 18.657 15.859 19.5H16C18.357 19.5 19.536 19.5 20.268 18.768C21 18.036 21 16.857 21 14.5V9.5C21 7.143 21 5.965 20.268 5.232C19.536 4.5 18.357 4.5 16 4.5H15.859C16 5.343 16 6.462 16 8V12.75V16Z" fill="#868686"/>
<path fill-rule="evenodd" clip-rule="evenodd" d="M19.5299 12.5308C19.6704 12.3902 19.7493 12.1996 19.7493 12.0008C19.7493 11.8021 19.6704 11.6114 19.5299 11.4708L17.5299 9.47082C17.3878 9.33834 17.1997 9.26622 17.0054 9.26965C16.8111 9.27308 16.6257 9.35179 16.4883 9.4892C16.3509 9.62661 16.2722 9.812 16.2688 10.0063C16.2653 10.2006 16.3374 10.3886 16.4699 10.5308L17.1899 11.2508L9.99993 11.2508C9.80101 11.2508 9.61025 11.3298 9.4696 11.4705C9.32895 11.6111 9.24993 11.8019 9.24993 12.0008C9.24993 12.1997 9.32895 12.3905 9.4696 12.5312C9.61025 12.6718 9.80101 12.7508 9.99993 12.7508L17.1899 12.7508L16.4699 13.4708C16.3962 13.5395 16.3371 13.6223 16.2961 13.7143C16.2552 13.8063 16.2331 13.9056 16.2313 14.0063C16.2296 14.107 16.2481 14.207 16.2858 14.3004C16.3235 14.3938 16.3797 14.4786 16.4509 14.5499C16.5221 14.6211 16.6069 14.6772 16.7003 14.7149C16.7937 14.7527 16.8937 14.7712 16.9945 14.7694C17.0952 14.7676 17.1945 14.7456 17.2865 14.7046C17.3785 14.6636 17.4613 14.6045 17.5299 14.5308L19.5299 12.5308Z" fill="#868686"/>
</svg>
