<svg width="35" height="36" viewBox="0 0 35 36" fill="none" xmlns="http://www.w3.org/2000/svg">
<path d="M16.2166 10.6495V14.4339C16.2257 14.8947 16.096 15.3475 15.8442 15.7335C15.5924 16.1195 15.2303 16.4207 14.8049 16.5981C14.5223 16.7165 14.2189 16.7775 13.9124 16.7775H10.1208C9.50917 16.7771 8.92246 16.5353 8.48824 16.1046C8.05401 15.6739 7.80739 15.0892 7.802 14.4777V10.6933C7.80162 10.3889 7.86136 10.0874 7.97781 9.80615C8.09425 9.5249 8.26511 9.26942 8.48056 9.05437C8.69601 8.83933 8.95181 8.66896 9.23328 8.55305C9.51475 8.43713 9.81635 8.37796 10.1208 8.37892H13.9124C14.5164 8.38332 15.0949 8.62293 15.5251 9.04686C15.9553 9.4708 16.2033 10.0457 16.2166 10.6495ZM16.2166 21.5798V25.3641C16.2174 25.9764 15.9752 26.564 15.5432 26.9979C15.1112 27.4318 14.5247 27.6766 13.9124 27.6785H10.1208C9.50678 27.6777 8.9181 27.4338 8.48354 27.0001C8.04899 26.5663 7.80393 25.9781 7.802 25.3641V21.5798C7.80509 20.9675 8.05098 20.3814 8.48571 19.9503C8.92043 19.5191 9.50847 19.278 10.1208 19.28H13.9124C14.5225 19.2807 15.1075 19.5231 15.5393 19.9541C15.9711 20.3851 16.2147 20.9696 16.2166 21.5798ZM27.2124 10.6495V14.4339C27.2211 15.0413 26.9903 15.6277 26.5701 16.0662C26.1498 16.5048 25.5738 16.7603 24.9666 16.7775H21.1895C20.5779 16.7771 19.9912 16.5353 19.557 16.1046C19.1228 15.6739 18.8761 15.0892 18.8708 14.4777V10.6933C18.8704 10.3889 18.9301 10.0874 19.0466 9.80615C19.163 9.5249 19.3339 9.26942 19.5493 9.05437C19.7648 8.83933 20.0206 8.66896 20.302 8.55305C20.5835 8.43713 20.8851 8.37796 21.1895 8.37892H24.9666C25.5604 8.39819 26.1242 8.64435 26.5419 9.06673C26.9597 9.48912 27.1997 10.0556 27.2124 10.6495ZM27.2124 21.6089V25.3933C27.2134 25.9956 26.9793 26.5746 26.5598 27.0068C26.1403 27.4391 25.5687 27.6906 24.9666 27.7077H21.1895C20.5755 27.7069 19.9869 27.463 19.5523 27.0292C19.1177 26.5955 18.8727 26.0073 18.8708 25.3933V21.6089C18.8742 20.9968 19.1202 20.4109 19.5549 19.9799C19.9895 19.5488 20.5773 19.3076 21.1895 19.3091H24.9666C25.5654 19.3283 26.1337 19.5784 26.5523 20.0071C26.9709 20.4358 27.2075 21.0098 27.2124 21.6089Z" fill="white"/>
<path d="M30.9895 14.6389C30.7008 14.6351 30.425 14.5189 30.2207 14.3149C30.0165 14.1109 29.8999 13.8352 29.8957 13.5466V9.04908C29.9053 8.59348 29.8224 8.14067 29.6519 7.71805C29.4815 7.29543 29.2271 6.91178 28.904 6.59033C28.2632 5.95703 27.3988 5.60134 26.4978 5.60012H22.0499C21.7603 5.60012 21.4825 5.48529 21.2775 5.2808C21.0725 5.07631 20.9569 4.79886 20.9561 4.50929C20.9559 4.36567 20.9841 4.22343 21.039 4.09072C21.0939 3.95802 21.1745 3.83746 21.2761 3.73598C21.3778 3.63449 21.4984 3.55407 21.6312 3.49933C21.764 3.44459 21.9063 3.41661 22.0499 3.417H26.5416C28.0192 3.45486 29.4228 4.07183 30.4499 5.13491C30.9699 5.65112 31.3822 6.26558 31.6626 6.94255C31.943 7.61953 32.086 8.3455 32.0832 9.07825V13.5757C32.076 13.8607 31.9575 14.1316 31.753 14.3303C31.5486 14.5289 31.2745 14.6397 30.9895 14.6389ZM26.4978 32.5837H22.0499C21.7603 32.5837 21.4825 32.4688 21.2775 32.2643C21.0725 32.0599 20.9569 31.7824 20.9561 31.4928C20.9559 31.3492 20.9841 31.207 21.039 31.0743C21.0939 30.9416 21.1745 30.821 21.2761 30.7195C21.3778 30.618 21.4984 30.5376 21.6312 30.4829C21.764 30.4281 21.9063 30.4002 22.0499 30.4005H26.5416C27.2139 30.3944 27.8693 30.1884 28.4242 29.8087C28.9792 29.4291 29.4086 28.8929 29.658 28.2685C29.8226 27.8544 29.9034 27.4117 29.8957 26.9662V22.5124C29.8955 22.3688 29.9237 22.2266 29.9786 22.0938C30.0335 21.9611 30.1141 21.8406 30.2157 21.7391C30.3174 21.6376 30.438 21.5572 30.5708 21.5025C30.7036 21.4477 30.8458 21.4197 30.9895 21.4201C31.2793 21.4201 31.5573 21.5352 31.7624 21.74C31.9674 21.9448 32.0828 22.2226 32.0832 22.5124V26.9662C32.0867 28.0706 31.7607 29.1509 31.1468 30.069C30.533 30.9871 29.6591 31.7012 28.6372 32.1199C27.959 32.3985 27.2313 32.5428 26.4978 32.5399V32.5837ZM13.0082 32.5837H8.51655C7.77906 32.5833 7.04887 32.4376 6.36774 32.1548C5.6866 31.872 5.06789 31.4578 4.54697 30.9357C4.02722 30.4143 3.61562 29.7953 3.33582 29.1144C3.05602 28.4334 2.91353 27.7038 2.91655 26.9676V22.5139C2.91636 22.3703 2.94453 22.228 2.99944 22.0953C3.05436 21.9626 3.13494 21.842 3.23656 21.7406C3.33818 21.6391 3.45885 21.5587 3.59162 21.5039C3.7244 21.4492 3.86668 21.4212 4.0103 21.4216C4.30001 21.422 4.57777 21.5371 4.78276 21.7418C4.98775 21.9466 5.10328 22.2242 5.10405 22.5139V26.9676C5.10753 27.8696 5.46887 28.7333 6.10871 29.369C6.74855 30.0048 7.61457 30.3606 8.51655 30.3582H13.0082C13.298 30.3582 13.576 30.4733 13.7811 30.6781C13.9862 30.8829 14.1016 31.1607 14.102 31.4505C14.1022 31.5941 14.074 31.7363 14.019 31.8689C13.9641 32.0015 13.8835 32.122 13.7819 32.2233C13.6802 32.3247 13.5596 32.405 13.4268 32.4596C13.294 32.5141 13.1518 32.5419 13.0082 32.5414V32.5837ZM4.0103 14.6389C3.72164 14.6351 3.44585 14.5189 3.24158 14.3149C3.03732 14.1109 2.9207 13.8352 2.91655 13.5466V9.04908C2.91839 8.32135 3.06358 7.60111 3.34383 6.92951C3.62408 6.25791 4.0339 5.6481 4.54988 5.13491C5.60194 4.09341 7.02158 3.50774 8.50197 3.5045H12.9936C13.2835 3.5045 13.5614 3.61953 13.7665 3.82433C13.9716 4.02913 14.087 4.30696 14.0874 4.59679C14.0874 4.74028 14.0591 4.88237 14.0041 5.01491C13.9491 5.14744 13.8685 5.26783 13.7669 5.36916C13.6653 5.47049 13.5447 5.55078 13.412 5.60543C13.2793 5.66007 13.1371 5.688 12.9936 5.68762H8.50197C7.59987 5.68491 6.73363 6.04057 6.0937 6.67639C5.45378 7.31222 5.09256 8.17615 5.08947 9.07825V13.5757C5.08231 13.8582 4.96581 14.1269 4.76452 14.3252C4.56323 14.5235 4.29285 14.6359 4.0103 14.6389Z" fill="white"/>
</svg>
