<svg width="19" height="18" viewBox="0 0 19 18" fill="none" xmlns="http://www.w3.org/2000/svg">
<g clip-path="url(#clip0_346_4418)">
<path d="M12.7139 0C12.7558 0 12.7977 0 12.842 0C12.9447 1.2694 12.4602 2.21789 11.8713 2.90476C11.2935 3.58688 10.5023 4.24845 9.22267 4.14807C9.13731 2.89685 9.62262 2.01871 10.2107 1.33342C10.7561 0.69477 11.7559 0.126466 12.7139 0Z" fill="black"/>
<path d="M16.5878 13.2118C16.5878 13.2244 16.5878 13.2355 16.5878 13.2474C16.2282 14.3366 15.7152 15.27 15.0892 16.1363C14.5177 16.9228 13.8174 17.9811 12.567 17.9811C11.4865 17.9811 10.7688 17.2864 9.66147 17.2674C8.49008 17.2484 7.8459 17.8483 6.7749 17.9993C6.65238 17.9993 6.52987 17.9993 6.40973 17.9993C5.62327 17.8855 4.98857 17.2626 4.52618 16.7015C3.16272 15.0432 2.10911 12.9012 1.91309 10.16C1.91309 9.89129 1.91309 9.62334 1.91309 9.3546C1.99608 7.3928 2.94931 5.79776 4.21634 5.02474C4.88503 4.61372 5.80427 4.26357 6.82785 4.42007C7.26653 4.48805 7.71469 4.63823 8.10753 4.78682C8.47981 4.92989 8.94536 5.18361 9.38641 5.17017C9.68518 5.16148 9.98238 5.00577 10.2835 4.8959C11.1656 4.57736 12.0303 4.21219 13.1701 4.38371C14.5399 4.5908 15.5121 5.19942 16.1128 6.13842C14.9541 6.87588 14.038 7.98719 14.1945 9.88496C14.3336 11.6088 15.3358 12.6174 16.5878 13.2118Z" fill="black"/>
</g>
<defs>
<clipPath id="clip0_346_4418">
<rect width="18" height="18" fill="white" transform="translate(0.25)"/>
</clipPath>
</defs>
</svg>
