<svg width="19" height="18" viewBox="0 0 19 18" fill="none" xmlns="http://www.w3.org/2000/svg">
<path d="M17.1259 9.17444C17.1259 8.52695 17.0723 8.05445 16.9563 7.56445H9.41162V10.4869H13.8402C13.7509 11.2132 13.2688 12.3069 12.1973 13.0419L12.1823 13.1397L14.5678 14.9508L14.733 14.967C16.2509 13.5932 17.1259 11.5719 17.1259 9.17444" fill="#4285F4"/>
<path d="M9.41099 16.8742C11.5806 16.8742 13.402 16.1742 14.7324 14.9667L12.1967 13.0416C11.5181 13.5054 10.6074 13.8291 9.41099 13.8291C7.28601 13.8291 5.48246 12.4554 4.83954 10.5566L4.7453 10.5645L2.26486 12.4458L2.23242 12.5341C3.55383 15.1066 6.26811 16.8742 9.41099 16.8742Z" fill="#34A853"/>
<path d="M4.84022 10.5566C4.67059 10.0666 4.57241 9.54159 4.57241 8.99912C4.57241 8.45659 4.67059 7.93161 4.8313 7.44161L4.82681 7.33726L2.31527 5.42578L2.2331 5.46409C1.68848 6.5316 1.37598 7.73037 1.37598 8.99912C1.37598 10.2679 1.68848 11.4666 2.2331 12.5341L4.84022 10.5566" fill="#FBBC05"/>
<path d="M9.41103 4.16998C10.9199 4.16998 11.9378 4.80873 12.5182 5.34251L14.786 3.1725C13.3932 1.90375 11.5806 1.125 9.41103 1.125C6.26814 1.125 3.55384 2.89249 2.23242 5.46497L4.83063 7.44249C5.48248 5.54375 7.28604 4.16998 9.41103 4.16998" fill="#EB4335"/>
</svg>
