<svg width="24" height="24" viewBox="0 0 24 24" fill="none" xmlns="http://www.w3.org/2000/svg">
<path d="M6.39544 18.5248C7.44226 18.5248 8.29088 17.6712 8.29088 16.6183C8.29088 15.5655 7.44226 14.7119 6.39544 14.7119C5.34862 14.7119 4.5 15.5655 4.5 16.6183C4.5 17.6712 5.34862 18.5248 6.39544 18.5248Z" fill="#1355FF"/>
<path d="M11.1337 15.9814C11.8316 15.9814 12.3974 15.4123 12.3974 14.7104C12.3974 14.0085 11.8316 13.4395 11.1337 13.4395C10.4359 13.4395 9.87012 14.0085 9.87012 14.7104C9.87012 15.4123 10.4359 15.9814 11.1337 15.9814Z" fill="#1355FF"/>
<path fill-rule="evenodd" clip-rule="evenodd" d="M10.4798 5.02054C9.27098 5.72246 8.85518 7.27421 9.55107 8.48647L12.0724 12.8789C12.2159 13.1289 12.0355 13.4406 11.7472 13.4406H11.1416C10.4397 13.4406 9.87064 14.0096 9.87064 14.7115C9.87064 15.4135 10.4397 15.9825 11.1416 15.9825H13.6368C13.7711 15.9825 13.8952 16.0543 13.962 16.1708L14.6129 17.3046C15.3087 18.5169 16.8528 18.9306 18.0615 18.2286C19.2703 17.5267 19.6861 15.975 18.9902 14.7627L13.9284 5.94457C13.2325 4.73231 11.6885 4.31861 10.4798 5.02054Z" fill="#1355FF"/>
</svg>
