<svg width="19" height="18" viewBox="0 0 19 18" fill="none" xmlns="http://www.w3.org/2000/svg">
<path d="M9 3H10.5M9.75 12.75V12.7575M5.25 3.75C5.25 3.35218 5.40804 2.97064 5.68934 2.68934C5.97064 2.40804 6.35218 2.25 6.75 2.25H12.75C13.1478 2.25 13.5294 2.40804 13.8107 2.68934C14.092 2.97064 14.25 3.35218 14.25 3.75V14.25C14.25 14.6478 14.092 15.0294 13.8107 15.3107C13.5294 15.592 13.1478 15.75 12.75 15.75H6.75C6.35218 15.75 5.97064 15.592 5.68934 15.3107C5.40804 15.0294 5.25 14.6478 5.25 14.25V3.75Z" stroke="#04070E" stroke-width="1.5" stroke-linecap="round" stroke-linejoin="round"/>
</svg>
