<svg width="16" height="20" viewBox="0 0 16 20" fill="none" xmlns="http://www.w3.org/2000/svg">
<path d="M0 17V15H2V8C2 6.61667 2.41667 5.38767 3.25 4.313C4.08333 3.23834 5.16667 2.534 6.5 2.2V1.5C6.5 1.08334 6.646 0.729336 6.938 0.438002C7.23 0.146669 7.584 0.000668939 8 2.27273e-06C8.416 -0.000664394 8.77033 0.145336 9.063 0.438002C9.35567 0.730669 9.50133 1.08467 9.5 1.5V2.2C10.8333 2.53334 11.9167 3.23767 12.75 4.313C13.5833 5.38834 14 6.61734 14 8V15H16V17H0ZM8 20C7.45 20 6.97933 19.8043 6.588 19.413C6.19667 19.0217 6.00067 18.5507 6 18H10C10 18.55 9.80433 19.021 9.413 19.413C9.02167 19.805 8.55067 20.0007 8 20ZM4 15H12V8C12 6.9 11.6083 5.95834 10.825 5.175C10.0417 4.39167 9.1 4 8 4C6.9 4 5.95833 4.39167 5.175 5.175C4.39167 5.95834 4 6.9 4 8V15Z" fill="white"/>
</svg>
