<svg width="24" height="24" viewBox="0 0 24 24" fill="none" xmlns="http://www.w3.org/2000/svg">
<path d="M11.9999 2.40039C13.4496 2.40123 14.8804 2.7304 16.1847 3.3632C17.489 3.99599 18.6331 4.91599 19.5311 6.05413C20.429 7.19228 21.0576 8.51903 21.3695 9.9348C21.6814 11.3506 21.6687 12.8186 21.3321 14.2288C20.9956 15.6389 20.3441 16.9545 19.4265 18.0769C18.5089 19.1992 17.3489 20.0992 16.0338 20.7092C14.7187 21.3192 13.2824 21.6234 11.8329 21.599C10.3834 21.5746 8.95819 21.2223 7.6643 20.5684L7.5191 20.4904L3.1451 21.5824C3.06092 21.6036 2.97315 21.6062 2.88785 21.5902C2.80255 21.5741 2.72174 21.5397 2.65101 21.4894C2.58028 21.4391 2.52131 21.3741 2.47816 21.2988C2.43502 21.2234 2.40872 21.1397 2.4011 21.0532V20.9548L2.4179 20.8552L3.5099 16.4824L3.4343 16.3384C2.88653 15.2568 2.54857 14.0813 2.4383 12.874L2.4083 12.4156L2.3999 12.0004C2.3999 9.45431 3.41133 7.01252 5.21168 5.21217C7.01203 3.41182 9.45382 2.40039 11.9999 2.40039ZM12.5999 13.2004H8.9999L8.8919 13.21C8.75356 13.235 8.62841 13.3079 8.53829 13.4158C8.44817 13.5237 8.3988 13.6598 8.3988 13.8004C8.3988 13.941 8.44817 14.0771 8.53829 14.185C8.62841 14.2929 8.75356 14.3657 8.8919 14.3908L8.9999 14.4004H12.5999L12.7079 14.3908C12.8462 14.3657 12.9714 14.2929 13.0615 14.185C13.1516 14.0771 13.201 13.941 13.201 13.8004C13.201 13.6598 13.1516 13.5237 13.0615 13.4158C12.9714 13.3079 12.8462 13.235 12.7079 13.21L12.5999 13.2004ZM14.9999 9.60039H8.9999L8.8919 9.60999C8.75356 9.63504 8.62841 9.70787 8.53829 9.81577C8.44817 9.92368 8.3988 10.0598 8.3988 10.2004C8.3988 10.341 8.44817 10.4771 8.53829 10.585C8.62841 10.6929 8.75356 10.7657 8.8919 10.7908L8.9999 10.8004H14.9999L15.1079 10.7908C15.2462 10.7657 15.3714 10.6929 15.4615 10.585C15.5516 10.4771 15.601 10.341 15.601 10.2004C15.601 10.0598 15.5516 9.92368 15.4615 9.81577C15.3714 9.70787 15.2462 9.63504 15.1079 9.60999L14.9999 9.60039Z" fill="#868686"/>
</svg>
