<svg width="24" height="24" viewBox="0 0 24 24" fill="none" xmlns="http://www.w3.org/2000/svg">
<path d="M5.10701 9.54805L5.10785 9.54637C5.17969 9.40234 5.27255 9.29353 5.39136 9.2064L5.3914 9.20645L5.4 9.2L11.3933 4.70499C11.4981 4.62955 11.5971 4.58005 11.6912 4.54868C11.7864 4.51695 11.8878 4.5 12 4.5C12.1122 4.5 12.2136 4.51695 12.3088 4.54868C12.4029 4.58006 12.5019 4.62956 12.6067 4.70501L18.6 9.2L18.6 9.20004L18.6086 9.2064C18.7276 9.29364 18.821 9.40274 18.8935 9.54716C18.9654 9.69158 19 9.83853 19 10V19C19 19.2827 18.9111 19.5001 18.7059 19.7059C18.5001 19.9111 18.2827 20 18 20H15V15C15 13.8954 14.1046 13 13 13H11C9.89543 13 9 13.8954 9 15V20H6C5.71707 20 5.50022 19.911 5.29511 19.7059C5.08897 19.4997 5 19.2824 5 19V10C5 9.83903 5.03465 9.69243 5.10701 9.54805Z" fill="#868686" stroke="#868686" stroke-width="2" stroke-linejoin="round"/>
</svg>
